<?xml version="1.0" encoding="UTF-8" standalone="no"?>
<!-- Created with Inkscape (http://www.inkscape.org/) -->

<svg
   xmlns:dc="http://purl.org/dc/elements/1.1/"
   xmlns:cc="http://creativecommons.org/ns#"
   xmlns:rdf="http://www.w3.org/1999/02/22-rdf-syntax-ns#"
   xmlns:svg="http://www.w3.org/2000/svg"
   xmlns="http://www.w3.org/2000/svg"
   xmlns:sodipodi="http://sodipodi.sourceforge.net/DTD/sodipodi-0.dtd"
   xmlns:inkscape="http://www.inkscape.org/namespaces/inkscape"
   version="1.1"
   id="svg2"
   width="553"
   height="540"
   viewBox="0 0 553 539.99999"
   sodipodi:docname="electricity.svg"
   inkscape:version="0.92.5 (2060ec1f9f, 2020-04-08)">
  <metadata
     id="metadata8">
    <rdf:RDF>
      <cc:Work
         rdf:about="">
        <dc:format>image/svg+xml</dc:format>
        <dc:type
           rdf:resource="http://purl.org/dc/dcmitype/StillImage" />
        <dc:title></dc:title>
      </cc:Work>
    </rdf:RDF>
  </metadata>
  <defs
     id="defs6" />
  <sodipodi:namedview
     pagecolor="#ffffff"
     bordercolor="#666666"
     borderopacity="1"
     objecttolerance="10"
     gridtolerance="10"
     guidetolerance="10"
     inkscape:pageopacity="0"
     inkscape:pageshadow="2"
     inkscape:window-width="1920"
     inkscape:window-height="2096"
     id="namedview4"
     showgrid="false"
     inkscape:zoom="0.8499979"
     inkscape:cx="288.68925"
     inkscape:cy="579.44429"
     inkscape:window-x="1920"
     inkscape:window-y="27"
     inkscape:window-maximized="0"
     inkscape:current-layer="g930" />
  <g
     id="g918"
     transform="translate(11.498108,-140.21069)">
    <g
       id="g930"
       transform="matrix(1.3622787,0,0,1.3622787,-78.27043,-143.84375)">
      <g
         id="g936"
         transform="translate(17.119335)">
        <path
           sodipodi:nodetypes="scsssccssccsccssssssccccscscccscscccccccsscsccscssssssscscssssssscscsscsccscscscc"
           inkscape:connector-curvature="0"
           id="path825"
           d="m 247.33294,353.17589 c -8.04256,2.86508 -15.13691,5.54302 -15.76525,5.95097 -0.62831,0.40795 -1.1424,2.31718 -1.1424,4.24271 0,1.92555 0.51409,3.90791 1.1424,4.40525 1.36461,1.08012 29.44537,-9.07702 32.0167,-11.58082 0.89574,-0.87222 1.87491,-3.10836 2.17592,-4.96919 0.50426,-3.11729 0.3762,-3.37841 -1.62861,-3.32074 -1.19677,0.0344 -8.7562,2.40674 -16.79876,5.27182 z m 3.73544,15.71785 c -16.36122,6.5642 -29.70248,12.43763 -30.38807,13.37823 -1.63949,2.24927 -1.56365,9.1042 0.11941,10.79263 1.40277,1.40724 -0.0954,1.97804 47.55355,-18.11884 7.12402,-3.00471 9.59269,-4.52731 11.1956,-6.90509 1.99572,-2.96052 2.85726,-9.51342 1.37089,-10.4271 -0.377,-0.23173 -13.81012,4.84435 -29.85138,11.28017 z m 19.56968,11.12604 c -29.29739,12.10433 -38.96759,16.78466 -53.92169,26.09786 -5.87731,3.6603 -11.64532,8.37522 -17.85369,14.59404 -7.62158,7.63444 -9.82482,10.51465 -13.03838,17.04443 -5.26512,10.69846 -6.88292,18.83114 -6.27944,31.5665 0.82098,17.32497 6.79744,31.81288 18.19994,44.11953 l 2.65153,2.86178 -2.22646,2.41004 c -2.74307,2.96925 -3.11153,2.97681 -5.75261,0.11796 -3.52966,-3.82069 -5.96946,-3.04161 -14.60103,4.66244 -6.03222,5.38398 -8.06607,6.72624 -9.00605,5.94363 -1.71517,-1.42801 -4.18765,-0.22385 -4.18765,2.03946 0,1.04813 0.81799,2.77917 1.81773,3.84676 l 1.81773,1.94105 -4.05687,3.9942 c -3.31484,3.26364 -3.89217,4.30289 -3.15646,5.68195 1.27708,2.39385 2.41756,2.12445 6.44,-1.52116 1.94733,-1.76493 3.88273,-3.20894 4.30085,-3.20894 0.41812,0 1.91468,1.29982 3.3257,2.88849 l 2.56548,2.88848 -4.47074,3.92425 -4.47075,3.92423 1.82785,1.84703 1.82785,1.84705 4.07955,-3.61715 c 2.24377,-1.98943 4.33917,-3.61716 4.65648,-3.61716 0.31731,0 1.32129,0.82516 2.23109,1.8337 2.85017,3.15942 7.76286,1.5822 5.90705,-1.89644 -0.70928,-1.32952 0.51174,-2.86653 6.89723,-8.6822 9.06201,-8.25332 9.53872,-9.87639 4.55173,-15.49752 -1.76327,-1.98748 -2.89392,-3.85026 -2.51258,-4.13951 0.38134,-0.28926 1.79242,-1.48987 3.13573,-2.66806 l 2.44239,-2.14215 4.24075,2.92702 c 16.33539,11.27485 38.46605,13.99124 58.42486,7.17123 14.84256,-5.07176 26.43156,-15.3919 35.13548,-31.28857 6.53581,-11.93687 9.21837,-31.85665 6.07109,-45.08203 -4.57997,-19.24593 -21.61721,-36.77277 -37.57332,-38.65308 -7.70933,-0.90849 -9.89515,0.39299 -21.41395,12.75022 -5.75278,6.17151 -13.89253,14.79307 -18.08831,19.15901 -4.19577,4.36595 -7.48844,8.54501 -7.31703,9.28684 0.17142,0.74182 4.11237,5.35409 8.75765,10.24947 l 8.44599,8.9007 -14.37805,15.04788 c -7.90792,8.27633 -14.60467,15.04788 -14.88167,15.04788 -1.26598,0 -8.40005,-8.32205 -11.3114,-13.19496 -5.01401,-8.39229 -6.30047,-14.02539 -5.78079,-25.31229 0.57974,-12.59079 3.17997,-19.05759 12.24051,-30.4421 7.69675,-9.67095 20.42927,-17.9371 46.16616,-29.97182 16.1535,-7.55345 23.77445,-12.22632 26.39812,-16.18628 3.51173,-5.30033 4.42515,-13.39554 1.48553,-13.16542 -0.59446,0.0465 -4.98786,1.69881 -9.76313,3.67173 z m 10.49789,61.1764 c 7.31357,5.07204 10.86778,13.86605 10.69427,26.46018 -0.20924,15.18739 -4.8854,27.29027 -14.00151,36.23882 -8.98524,8.82007 -18.32675,12.17236 -33.69454,12.09165 -9.61676,-0.0505 -11.14963,-0.30724 -18.03314,-3.02015 -4.13764,-1.63071 -7.73282,-3.30554 -7.9893,-3.72185 -0.40123,-0.65127 1.30546,-2.35066 8.65783,-8.62073 0.75399,-0.64299 9.28779,-7.49934 18.96399,-15.23632 9.67619,-7.73698 17.5857,-14.31049 17.57667,-14.60778 -0.01,-0.29731 -4.73753,-3.63489 -10.5078,-7.41685 -5.77024,-3.78196 -10.48662,-7.08258 -10.48082,-7.33472 0.005,-0.25212 5.80175,-4.27475 12.8799,-8.93918 12.089,-7.9665 13.15503,-8.47891 17.58019,-8.4503 3.61874,0.0234 5.55546,0.61623 8.35426,2.55723 z"
           style="fill:#fb840d;stroke-width:0.91538185" />
        <g
           transform="matrix(0.64270648,0,0,0.64270648,79.417775,94.457253)"
           id="g924"
           style="fill:#808080;fill-opacity:1">
          <path
             style="fill:#808080;fill-opacity:1;stroke-width:1.26603758"
             d="m 268.81692,363.89787 c -182.301276,263.00713 -91.15064,131.50357 0,0 z m -81.31399,-5.48511 c -0.35529,-0.92551 -0.47971,-6.76511 -0.27695,-12.97688 0.34697,-10.61866 0.53932,-11.31838 3.21752,-11.69875 2.80319,-0.39809 2.84858,-0.69457 2.84858,-18.59868 v -18.1941 L 178.62835,281.0435 c -9.29884,-10.08332 -15.58247,-15.90084 -17.17474,-15.90084 -6.42961,0 -10.90917,-6.15033 -8.70398,-11.95036 3.44035,-9.04889 16.48773,-6.16588 16.48773,3.64314 0,3.57833 2.15757,6.49434 15.15511,20.48271 l 15.15506,16.31036 0.0356,19.94009 0.0356,19.9401 h 3.16505 3.1651 v 13.29339 13.2934 h -8.90198 c -6.23639,0 -9.09538,-0.5039 -9.54772,-1.68273 z M 163.9202,259.8253 c 2.32868,-2.32871 1.80985,-5.83235 -1.09378,-7.38634 -3.30305,-1.7677 -6.24923,0.36518 -6.24923,4.52399 0,4.02501 4.44687,5.75845 7.34301,2.86235 z m 59.75695,86.97679 V 333.5087 h 3.16508 3.1651 v -25.8174 -25.81739 l 7.59623,-7.03277 7.59622,-7.0328 v -16.00908 c 0,-14.09207 -0.30305,-16.39455 -2.53208,-19.2281 -3.35523,-4.26552 -3.19392,-7.39493 0.5755,-11.16436 3.79638,-3.79637 6.90046,-3.92942 11.28115,-0.48355 4.08131,3.21036 4.44679,8.92541 0.80374,12.56847 -2.28033,2.28033 -2.53204,4.22014 -2.53204,19.51142 v 16.97935 l -8.22929,7.54059 -8.22924,7.54064 v 24.22247 c 0,22.92213 0.12859,24.22251 2.39665,24.22251 3.23476,0 3.93353,2.36155 3.93353,13.29339 0,13.30645 0.0121,13.2934 -10.26372,13.2934 h -8.72683 z m 29.75888,-117.1198 c 1.19292,-1.93015 -0.46614,-5.98123 -2.81927,-6.88423 -2.78441,-1.06846 -7.03759,3.23227 -5.96383,6.03049 0.90103,2.34807 7.46524,2.98611 8.7831,0.85374 z m 6.9562,117.1198 c 0,-12.44939 0.16064,-13.29339 2.53211,-13.29339 2.38645,0 2.53204,-0.84402 2.53204,-14.67627 0,-12.75921 -0.33075,-15.09671 -2.53204,-17.89524 -4.89152,-6.21854 -1.80473,-14.28728 5.45244,-14.2525 4.80438,0.0237 6.30779,0.89082 8.39047,4.84311 1.22472,2.32421 1.23244,3.75799 0.0356,6.64669 -0.8391,2.02583 -1.99369,3.68327 -2.56574,3.68327 -0.57205,0 -1.21508,7.12249 -1.42897,15.82775 -0.38534,15.68578 -0.36319,15.82777 2.45973,15.82547 2.77337,-0.002 2.84857,0.34856 2.84857,13.29111 v 13.2934 h -8.86226 -8.86226 v -13.2934 z m 12.56681,-49.83361 c 1.62156,-3.0299 -1.04282,-6.96305 -4.28553,-6.32624 -3.54737,0.69668 -5.3114,4.26093 -3.30519,6.67827 2.24769,2.70825 6.04718,2.53207 7.59072,-0.35211 z m 29.77562,61.50252 c -0.36755,-0.95756 -0.50202,-6.82335 -0.29909,-13.03512 0.34697,-10.61866 0.53932,-11.31838 3.21751,-11.69875 2.83062,-0.402 2.84859,-0.54479 2.84859,-22.64268 V 288.85631 L 297.10732,277.23732 285.71299,265.6183 v -10.36612 c 0,-8.67806 -0.41233,-10.77845 -2.53208,-12.89819 -5.3176,-5.3176 -1.51651,-13.98066 6.23092,-14.20095 7.75567,-0.22037 11.83678,8.79362 6.42945,14.20095 -2.09766,2.09766 -2.53207,4.22013 -2.53207,12.37183 v 9.83973 l 10.76132,10.70541 10.76132,10.70542 v 23.76613 23.76619 h 3.2094 3.20941 l -0.36083,12.97688 -0.36082,12.97688 -8.56312,0.37468 c -6.36477,0.27852 -8.73467,-0.072 -9.23123,-1.36623 z m -8.99512,-120.12553 c 2.75075,-4.38947 -4.5927,-8.35826 -7.95938,-4.30164 -1.13868,1.37203 -1.15569,2.47807 -0.0692,4.50793 1.67291,3.12588 6.01043,3.01443 8.02873,-0.20613 z m 38.81683,108.45662 c 0,-12.44939 0.16063,-13.29339 2.53207,-13.29339 2.45569,0 2.53208,-0.84402 2.53208,-27.96966 0,-26.05261 -0.17368,-28.19027 -2.53208,-31.18864 -4.96104,-6.30701 -1.42827,-14.27189 6.3302,-14.27189 4.55794,0 8.86226,3.91396 8.86226,8.05849 0,1.64692 -1.13939,4.44292 -2.53204,6.2134 -2.35854,2.99837 -2.53211,5.13603 -2.53211,31.18864 0,27.12564 0.0763,27.96966 2.53211,27.96966 2.37129,0 2.53204,0.844 2.53204,13.29339 v 13.2934 h -8.86226 -8.86227 z m 12.74848,-76.06837 c 2.2206,-2.67569 0.004,-6.22408 -3.88621,-6.22408 -3.89124,0 -6.10678,3.54839 -3.88619,6.22408 0.91531,1.10284 2.6641,2.00517 3.88619,2.00517 1.22212,0 2.97091,-0.90233 3.88621,-2.00517 z"
             id="path914"
             inkscape:connector-curvature="0"
             sodipodi:nodetypes="cccccsccscsscccccccsccccscccccccccscccsscccsssscczcczcssccccsccscccccccccccccscccsscsscccccccccccccccccssscsscssscccscscsc" />
          <rect
             ry="3.1195965"
             y="369.85129"
             x="183.55145"
             height="9.411788"
             width="168.2357"
             id="rect920"
             style="fill:#808080;fill-opacity:1;stroke:none;stroke-width:4;stroke-miterlimit:4;stroke-dasharray:none;stroke-opacity:1" />
        </g>
      </g>
    </g>
  </g>
</svg>
